<svg xmlns="http://www.w3.org/2000/svg" viewBox="0 0 512 512">
  <defs>
    <linearGradient id="bg" x1="0" y1="0" x2="1" y2="0">
      <stop offset="0%" stop-color="#3b82f6"/>
      <stop offset="100%" stop-color="#1d4ed8"/>
    </linearGradient>
  </defs>

  <!-- Document -->
  <path d="M80 0h272l80 80v352c0 44-36 80-80 80H80c-44 0-80-36-80-80V80C0 36 36 0 80 0z"
        fill="url(#bg)"/>

  <!-- Folded corner -->
  <path d="M352 0l80 80h-80c-22 0-40-18-40-40V0z"
        fill="#ff8a00"/>

  <!-- ID card -->
  <rect x="60" y="60" width="140" height="100" rx="14"
        fill="none" stroke="#ffffff" stroke-width="10"/>
  <circle cx="95" cy="95" r="18" fill="#ffffff"/>
  <path d="M72 135c0-18 14-30 32-30s32 12 32 30z" fill="#ffffff"/>
  <rect x="145" y="90" width="30" height="10" rx="5" fill="#ffffff"/>
  <rect x="145" y="115" width="30" height="10" rx="5" fill="#ffffff"/>

  <!-- Resume lines -->
  <rect x="120" y="220" width="260" height="18" rx="9" fill="#ffffff"/>
  <rect x="120" y="290" width="260" height="18" rx="9" fill="#ffffff"/>
  <rect x="120" y="360" width="260" height="18" rx="9" fill="#ffffff"/>
  <rect x="120" y="430" width="260" height="18" rx="9" fill="#ffffff"/>
</svg>