<svg xmlns="http://www.w3.org/2000/svg" viewBox="0 0 512 512" width="100%" height="100%">
  <rect width="512" height="512" rx="112" fill="#4f46e5"/>
  <rect x="120" y="90" width="272" height="332" rx="20" fill="#ffffff" />
  <!-- Resume document visual accents -->
  <rect x="160" y="140" width="100" height="20" rx="4" fill="#4f46e5" />
  <rect x="160" y="180" width="180" height="10" rx="2" fill="#94a3b8" />
  <rect x="160" y="200" width="190" height="10" rx="2" fill="#cbd5e1" />
  
  <!-- Accent photo proxy/badge -->
  <circle cx="320" cy="140" r="16" fill="#f59e0b" />
  
  <rect x="160" y="240" width="120" height="16" rx="4" fill="#312e81" />
  <rect x="160" y="270" width="192" height="8" rx="2" fill="#94a3b8" />
  <rect x="160" y="285" width="170" height="8" rx="2" fill="#cbd5e1" />
  <rect x="160" y="300" width="180" height="8" rx="2" fill="#cbd5e1" />
  
  <rect x="160" y="340" width="100" height="16" rx="4" fill="#312e81" />
  <rect x="160" y="370" width="180" height="8" rx="2" fill="#94a3b8" />
  <rect x="160" y="385" width="190" height="8" rx="2" fill="#cbd5e1" />
</svg>
